HIERARCHY
ROOT RootJoint
{
    OFFSET   0.000000   0.000000   0.000000
    CHANNELS 6 Xposition Yposition Zposition Xrotation Yrotation Zrotation
    JOINT lHip
    {
        OFFSET   0.100000  -0.051395   0.000000
        CHANNELS 3 Xrotation Yrotation Zrotation
        JOINT lKnee
        {
            OFFSET   0.000000  -0.410000   0.000000
            CHANNELS 3 Xrotation Yrotation Zrotation
            JOINT lAnkle
            {
                OFFSET   0.000000  -0.390000   0.000000
                CHANNELS 3 Xrotation Yrotation Zrotation
                JOINT lToeJoint
                {
                    OFFSET   0.000000  -0.050000   0.130000
                    CHANNELS 3 Xrotation Yrotation Zrotation
                    End Site
                    {
                        OFFSET   0.010000   0.002000   0.060000
                    }
                }
            }
        }
    }
    JOINT rHip
    {
        OFFSET  -0.100000  -0.051395   0.000000
        CHANNELS 3 Xrotation Yrotation Zrotation
        JOINT rKnee
        {
            OFFSET   0.000000  -0.410000   0.000000
            CHANNELS 3 Xrotation Yrotation Zrotation
            JOINT rAnkle
            {
                OFFSET   0.000000  -0.390000   0.000000
                CHANNELS 3 Xrotation Yrotation Zrotation
                JOINT rToeJoint
                {
                    OFFSET   0.000000  -0.050000   0.130000
                    CHANNELS 3 Xrotation Yrotation Zrotation
                    End Site
                    {
                        OFFSET  -0.010000   0.002000   0.060000
                    }
                }
            }
        }
    }
    JOINT pelvis_lowerback
    {
        OFFSET   0.000000   0.093605   0.000000
        CHANNELS 3 Xrotation Yrotation Zrotation
        JOINT lowerback_torso
        {
            OFFSET   0.000000   0.100000   0.000000
            CHANNELS 3 Xrotation Yrotation Zrotation
            JOINT torso_head
            {
                OFFSET   0.000000   0.282350   0.000000
                CHANNELS 3 Xrotation Yrotation Zrotation
                End Site
                {
                    OFFSET   0.000000   0.192650   0.000000
                }
            }
            JOINT lTorso_Clavicle
            {
                OFFSET   0.001000   0.157500   0.000000
                CHANNELS 3 Xrotation Yrotation Zrotation
                JOINT lShoulder
                {
                    OFFSET   0.117647   0.000000   0.000000
                    CHANNELS 3 Xrotation Yrotation Zrotation
                    JOINT lElbow
                    {
                        OFFSET   0.245000   0.000000   0.000000
                        CHANNELS 3 Xrotation Yrotation Zrotation
                        JOINT lWrist
                        {
                            OFFSET   0.240000   0.000000   0.000000
                            CHANNELS 3 Xrotation Yrotation Zrotation
                            End Site
                            {
                                OFFSET   0.116353  -0.002500   0.000000
                            }
                        }
                    }
                }
            }
            JOINT rTorso_Clavicle
            {
                OFFSET  -0.001000   0.157500   0.000000
                CHANNELS 3 Xrotation Yrotation Zrotation
                JOINT rShoulder
                {
                    OFFSET  -0.117647   0.000000   0.000000
                    CHANNELS 3 Xrotation Yrotation Zrotation
                    JOINT rElbow
                    {
                        OFFSET  -0.245000   0.000000   0.000000
                        CHANNELS 3 Xrotation Yrotation Zrotation
                        JOINT rWrist
                        {
                            OFFSET  -0.240000   0.000000   0.000000
                            CHANNELS 3 Xrotation Yrotation Zrotation
                            End Site
                            {
                                OFFSET  -0.116353  -0.002500   0.000000
                            }
                        }
                    }
                }
            }
        }
    }
}
MOTION
Frames: 11
Frame Time:   0.010000
  0.000000   0.000000   0.000000   0.000000   0.000000   0.000000   0.000000   0.000000   0.000000   0.000000   0.000000   0.000000   0.000000   0.000000   0.000000   0.000000   0.000000   0.000000   0.000000   0.000000   0.000000   0.000000   0.000000   0.000000   0.000000   0.000000   0.000000   0.000000   0.000000   0.000000   0.000000   0.000000   0.000000   0.000000   0.000000   0.000000   0.000000   0.000000   0.000000   0.000000   0.000000   0.000000   0.000000   0.000000   0.000000   0.000000   0.000000   0.000000   0.000000   0.000000   0.000000   0.000000   0.000000   0.000000   0.000000   0.000000   0.000000   0.000000   0.000000   0.000000   0.000000   0.000000   0.000000
  0.501265   0.504016   0.501773  43.361149  85.994250  45.799040  30.531113  79.768594  49.205431  55.996933  78.894168  29.234973  39.254025  78.456589  42.119795  40.630123  78.630613  41.146152  35.426614  77.621135  46.380050  59.293736  78.969175  24.421849  41.508533  78.674022  40.844395  41.380446  78.600282  40.255839  42.162369  78.738198  39.487182  43.890283  78.746547  38.489560  47.858923  78.925521  35.234706  49.092026  78.223561  31.731773  76.034378  76.103137   6.317615  40.169468  76.559739  43.970041  44.335745  78.719144  37.521277  33.703764  78.608453  49.363899  31.321927  81.659597  55.749920  41.433518  82.044664  38.100741  46.931696  78.963681  35.259538
  0.503522   0.503154   0.503819  49.936593  86.126567  39.100577  33.214187  79.831766  46.504471  54.305342  78.945670  30.140713  38.790175  78.264986  42.332099  39.842716  78.288521  41.733149  31.959011  76.707195  49.495129  59.923873  78.229738  23.968974  40.814541  78.180986  41.389674  41.401797  78.264107  40.172076  42.500976  78.240211  39.370236  43.149876  78.188566  39.019418  48.047058  78.912464  34.728560  49.373836  77.981319  31.117218  74.030778  74.780750   8.200851  40.540679  75.844395  43.707911  46.486692  78.617452  35.154916  32.972705  78.312494  50.021070  31.995490  81.499296  55.366412  39.657425  81.667860  39.855105  45.357467  78.571299  36.493616
  0.502326   0.504877   0.504070  49.141141  86.941367  39.535500  30.940119  79.535637  49.052338  56.851414  78.604983  28.005135  39.262117  78.144557  41.882253  40.500299  78.182933  41.345555  33.265900  77.262456  47.985675  58.907371  78.614564  25.061079  38.818659  78.367982  43.324668  41.279731  78.287576  40.492204  41.211144  78.159286  40.753523  43.592692  78.169719  38.905270  48.676159  78.882278  33.967488  50.321494  77.815905  30.400171  73.651763  75.430009   8.863111  40.022017  75.438819  44.408669  46.203386  78.366077  35.714052  33.838958  78.543090  48.966905  32.744288  81.436524  54.429392  39.976453  81.731522  39.674076  46.575216  78.589735  35.252847
  0.502954   0.503293   0.501235  52.762727  86.760653  35.718636  29.682531  79.857603  50.090250  56.854599  78.570965  28.258597  41.959085  78.342694  39.399874  41.070558  78.214893  40.370940  32.124409  76.918496  49.681260  59.490455  78.156820  24.304104  40.064449  78.078157  42.006087  41.988768  78.156285  39.503777  41.064003  78.301077  40.698051  43.434782  78.059644  39.155450  47.531732  78.697470  35.454620  48.895080  77.865494  31.520900  72.781995  75.324605   9.630952  39.597676  74.515684  45.720588  43.733774  78.210461  38.604065  33.090253  78.347358  49.749192  31.151358  81.662670  56.162838  42.654965  81.612187  36.911362  46.607070  78.762277  35.255369
  0.502732   0.501518   0.500402  50.030200  85.977138  39.480419  33.253606  79.856936  46.615639  55.745992  78.758683  29.194014  40.596518  78.396883  41.147172  41.717312  78.197425  39.948734  32.216843  76.897509  49.719975  58.313494  78.488782  25.522555  40.172980  78.243904  41.510306  40.218125  78.337812  41.377849  41.848143  78.157321  40.139084  42.595983  78.120589  39.916098  46.902935  79.094154  35.406779  48.170501  78.062257  32.501760  73.031137  75.337408   9.297032  40.272703  75.496833  44.303277  44.591974  78.550102  37.180057  34.019985  78.544183  48.657694  31.108152  81.392872  55.999972  40.605786  81.762421  39.176456  45.285985  78.693387  36.701421
  0.503075   0.502719   0.501683  52.974502  87.249190  36.566075  30.664292  79.571216  48.773212  54.682642  78.787668  29.903947  41.329141  78.314612  40.117564  40.974839  78.297301  40.671535  34.626231  77.186892  47.537711  55.925521  78.382111  27.928677  39.519624  78.329877  42.628511  41.394184  78.333058  40.159165  41.135995  78.091178  40.725484  42.875374  78.330573  39.446173  48.342388  78.660303  34.451919  48.686340  77.883793  31.967263  72.088315  74.663549  10.604750  39.118185  75.525444  45.253084  43.927988  78.280002  37.892459  32.602361  78.387729  50.196518  29.716737  81.471752  57.266370  42.387783  81.858992  37.198452  45.366321  78.545501  36.384242
  0.504180   0.504289   0.503961  48.050255  85.736590  41.486324  30.051493  80.117272  49.966876  55.767125  79.241926  29.150215  41.753540  78.810787  39.989392  40.488127  78.434327  41.460072  33.800722  76.906643  48.413048  58.505438  78.248590  25.251884  39.582330  78.335866  42.404801  41.763131  78.604887  40.150589  41.256737  78.580915  40.743282  43.206733  78.575843  39.217843  48.462046  79.210172  34.504036  49.334512  78.336846  31.405546  72.267807  76.023390  10.030609  39.525434  75.822059  45.149118  45.332518  78.871240  36.493664  33.445268  78.806702  49.599723  30.161074  81.736436  56.854093  41.149636  81.837058  38.665151  46.399534  78.883037  35.835363
  0.502908   0.502773   0.501867  47.450717  85.974656  41.091462  29.708800  79.607348  50.318530  57.198451  78.430768  27.775755  42.883337  78.183784  38.525469  40.930819  78.256208  40.740483  32.392133  76.934130  48.970632  58.353316  78.200402  25.132668  38.768946  78.182537  42.933682  40.829900  78.278858  40.799250  41.872017  78.351934  40.036652  44.366566  78.131783  38.133582  47.173614  78.289234  36.063228  48.249350  77.987969  32.378696  72.059284  75.423628  10.348492  38.637120  74.921284  46.108028  44.324976  78.357507  37.826135  32.879625  78.417471  49.867429  31.752752  81.465153  55.373011  41.051972  81.779064  38.570956  45.724962  78.763445  35.990850
  0.505594   0.503751   0.505601  48.588864  86.708853  40.033673  27.998141  79.710632  51.625083  58.469228  78.662634  26.747657  39.368346  78.418217  41.923007  40.681612  78.392248  40.986904  33.320730  77.028327  48.458328  57.694516  78.508303  25.963673  40.709091  78.342929  41.522684  41.060119  78.447477  40.655845  40.243180  78.538961  41.654322  42.656245  78.454542  39.751897  47.265637  78.532351  35.939582  48.146201  78.084244  32.859877  73.642948  75.743901   8.329353  39.460986  75.400024  45.397226  45.705395  78.631214  36.471623  34.332130  78.527113  48.540944  32.440107  81.466664  54.904064  41.646265  81.882209  37.947584  45.585650  78.852884  36.371649
  0.505520   0.502879   0.502729  46.222693  84.949917  43.574216  33.654364  79.651891  46.853068  56.637724  78.813034  28.098709  40.459157  78.401168  41.022357  41.401375  78.366841  40.369865  31.109258  77.304689  50.095356  57.492510  78.802555  26.275588  40.146449  78.253315  41.971936  41.096117  78.414702  40.663036  41.813948  78.359025  40.223775  44.155490  78.180632  38.501194  47.664803  78.655514  35.713546  48.461759  78.101340  32.257982  73.394213  75.370083   9.074436  39.135211  75.603048  45.489719  43.049851  78.686409  38.931645  32.419454  78.534413  50.551746  29.243612  81.644310  57.974803  41.095868  81.908147  38.670582  45.517681  78.664040  36.432842
